<svg width="16" height="16" viewBox="0 0 16 16" fill="none" xmlns="http://www.w3.org/2000/svg">
<path d="M1 7.08706C1 6.93773 1.02975 6.7884 1.08925 6.6449C1.22517 6.31823 1.58742 6.03473 2.31133 5.46773L5.9315 2.63506C6.65542 2.06807 7.01767 1.78457 7.43475 1.6784C7.80225 1.58507 8.19775 1.58507 8.56525 1.6784C8.98233 1.78515 9.34458 2.06807 10.0685 2.63506L13.6887 5.46773C14.4126 6.03473 14.7748 6.31823 14.9108 6.6449C14.9703 6.7884 15 6.93773 15 7.08706V8.9129C15 9.06223 14.9703 9.21156 14.9108 9.35506C14.7748 9.68173 14.4126 9.96523 13.6887 10.5316L10.0685 13.3649C9.34458 13.9319 8.98233 14.2148 8.56525 14.3216C8.19775 14.4149 7.80225 14.4149 7.43475 14.3216C7.01767 14.2148 6.65542 13.9319 5.9315 13.3649L2.31133 10.5316C1.58742 9.96581 1.22517 9.68173 1.08925 9.35506C1.03102 9.21488 1.0007 9.06469 1 8.9129L1 7.08706ZM6.44833 5.19823L6.96575 5.60306C7.32742 5.88598 7.50825 6.02773 7.71767 6.0814C7.90142 6.12806 8.09858 6.12806 8.28233 6.0814C8.49117 6.02773 8.672 5.88598 9.03483 5.60306L9.55167 5.19823C9.91333 4.91473 10.0942 4.77298 10.1624 4.60965C10.1918 4.53964 10.2069 4.46448 10.2069 4.38856C10.2069 4.31265 10.1918 4.23749 10.1624 4.16748C10.0948 4.00415 9.91333 3.8624 9.55167 3.57948L9.03425 3.17465C8.67258 2.89115 8.49175 2.7494 8.28233 2.69631C8.09695 2.65008 7.90305 2.65008 7.71767 2.69631C7.50883 2.7494 7.328 2.89115 6.96517 3.17465L6.44833 3.57948C6.08667 3.8624 5.90583 4.00415 5.83758 4.16748C5.80822 4.23749 5.7931 4.31265 5.7931 4.38856C5.7931 4.46448 5.80822 4.53964 5.83758 4.60965C5.90525 4.77298 6.08667 4.91473 6.44833 5.19823ZM9.89583 7.89615L10.4132 8.30098C10.7749 8.58448 10.9563 8.72623 11.1658 8.77931C11.3489 8.82598 11.5467 8.82598 11.7304 8.77931C11.9393 8.72623 12.1201 8.58448 12.4818 8.30098L12.9992 7.89615C13.3608 7.61323 13.5423 7.47148 13.6099 7.30815C13.6393 7.23814 13.6544 7.16298 13.6544 7.08706C13.6544 7.01115 13.6393 6.93599 13.6099 6.86598C13.5423 6.70265 13.3614 6.5609 12.9992 6.2774L12.4818 5.87256C12.1201 5.58965 11.9393 5.4479 11.7304 5.39423C11.5448 5.3479 11.3507 5.3479 11.1652 5.39423C10.9563 5.4479 10.7755 5.58965 10.4132 5.87256L9.89642 6.2774C9.53417 6.5609 9.35333 6.70265 9.28567 6.86598C9.25631 6.93599 9.24119 7.01115 9.24119 7.08706C9.24119 7.16298 9.25631 7.23814 9.28567 7.30815C9.35333 7.47148 9.53358 7.61323 9.89583 7.89615ZM3.00083 7.89615L6.96575 10.9995C7.32742 11.283 7.50825 11.4241 7.71767 11.4778C7.90142 11.5245 8.09858 11.5245 8.28233 11.4778C8.49117 11.4241 8.672 11.283 9.03483 10.9995L9.55167 10.5946C9.91333 10.3111 10.0942 10.1694 10.1624 10.0061C10.1921 9.93614 10.2074 9.86095 10.2074 9.78498C10.2074 9.70901 10.1921 9.63382 10.1624 9.5639C10.0948 9.40056 9.91333 9.25881 9.55167 8.9759L5.58675 5.87256C5.22508 5.58965 5.04367 5.4479 4.83425 5.39423C4.64887 5.34799 4.45497 5.34799 4.26958 5.39423C4.06075 5.4479 3.87992 5.58965 3.51825 5.87256L3.00083 6.2774C2.63917 6.5609 2.45775 6.70265 2.39008 6.86598C2.36072 6.93599 2.3456 7.01115 2.3456 7.08706C2.3456 7.16298 2.36072 7.23814 2.39008 7.30815C2.45775 7.47148 2.63858 7.61323 3.00083 7.89615Z" fill="#7650DC"/>
</svg>
